<svg width="498" height="150" viewBox="0 0 498 150" fill="none" xmlns="http://www.w3.org/2000/svg">
<path fill-rule="evenodd" clip-rule="evenodd" d="M308.796 117.305C279.871 138.625 237.946 150 201.849 150C151.235 150 105.67 131.279 71.1972 100.145C68.4894 97.6956 70.916 94.3591 74.1658 96.266C111.368 117.911 157.367 130.933 204.882 130.933C236.928 130.933 272.18 124.303 304.593 110.545C309.49 108.464 313.585 113.751 308.796 117.305" fill="#3B3C5F"/>
<path fill-rule="evenodd" clip-rule="evenodd" d="M320.822 103.546C317.139 98.8225 296.381 101.314 287.064 102.419C284.226 102.766 283.793 100.296 286.35 98.5193C302.882 86.8843 330.009 90.2427 333.172 94.1426C336.335 98.0644 332.349 125.256 316.813 138.235C314.43 140.228 312.155 139.166 313.216 136.523C316.705 127.813 324.527 108.291 320.822 103.546" fill="#3B3C5F"/>
<path fill-rule="evenodd" clip-rule="evenodd" d="M287.714 16.3801V5.07012C287.714 3.35834 289.015 2.21003 290.575 2.21003H341.21C342.835 2.21003 344.135 3.37975 344.135 5.07012V14.7549C344.113 16.3801 342.749 18.5035 340.322 21.8618L314.083 59.3238C323.833 59.0858 334.125 60.5373 342.965 65.5208C344.959 66.6472 345.5 68.2943 345.652 69.9189V81.9875C345.652 83.634 343.832 85.5623 341.925 84.5658C326.347 76.3977 305.655 75.5092 288.43 84.6525C286.675 85.6061 284.833 83.6992 284.833 82.0527V70.5909C284.833 68.7492 284.854 65.6074 286.696 62.8125L317.095 19.2188H290.639C289.015 19.2188 287.714 18.0704 287.714 16.3801V16.3801ZM103.005 86.9491H87.5991C86.1258 86.8411 84.9561 85.7361 84.8476 84.3274V5.26524C84.8476 3.68338 86.1691 2.42655 87.8157 2.42655H102.181C103.676 2.49126 104.868 3.64007 104.976 5.06962V15.4055H105.258C109.006 5.41705 116.048 0.759074 125.538 0.759074C135.179 0.759074 141.203 5.41705 145.537 15.4055C149.263 5.41705 157.735 0.759074 166.814 0.759074C173.27 0.759074 180.334 3.42405 184.645 9.40406C189.52 16.0555 188.524 25.7189 188.524 34.1907L188.502 84.0895C188.502 85.6714 187.18 86.9496 185.534 86.9496H170.15C168.612 86.8416 167.377 85.6066 167.377 84.0895V42.1856C167.377 38.8487 167.68 30.5282 166.944 27.3655C165.795 22.057 162.35 20.5617 157.886 20.5617C154.16 20.5617 150.26 23.0535 148.678 27.0405C147.097 31.0275 147.248 37.7004 147.248 42.1856V84.089C147.248 85.6709 145.926 86.9491 144.28 86.9491H128.896C127.336 86.8411 126.123 85.6061 126.123 84.089L126.101 42.1856C126.101 33.3669 127.553 20.389 116.611 20.389C105.54 20.389 105.973 33.0419 105.973 42.1856V84.089C105.973 85.6709 104.651 86.9491 103.005 86.9491V86.9491ZM387.729 0.758576C410.587 0.758576 422.96 20.3885 422.96 45.3488C422.96 69.464 409.288 88.5962 387.729 88.5962C365.282 88.5962 353.062 68.9657 353.062 44.5036C353.062 19.8902 365.434 0.758576 387.729 0.758576V0.758576ZM387.859 16.9002C376.505 16.9002 375.79 32.3704 375.79 42.0119C375.79 51.6758 375.639 72.3022 387.729 72.3022C399.668 72.3022 400.231 55.6623 400.231 45.5221C400.231 38.8487 399.949 30.8752 397.934 24.5487C396.201 19.045 392.756 16.9002 387.859 16.9002H387.859ZM452.6 86.9491H437.26C435.721 86.8411 434.486 85.6061 434.486 84.089L434.465 5.00491C434.594 3.55346 435.873 2.42655 437.433 2.42655H451.711C453.055 2.49126 454.16 3.40215 454.463 4.63657V16.727H454.745C459.057 5.9153 465.101 0.758576 475.74 0.758576C482.652 0.758576 489.39 3.24983 493.724 10.075C497.753 16.4015 497.753 27.0405 497.753 34.6889V84.4573C497.58 85.8441 496.302 86.9491 494.785 86.9491H479.337C477.928 86.8411 476.758 85.8008 476.606 84.4573V41.5136C476.606 32.8687 477.603 20.2148 466.965 20.2148C463.217 20.2148 459.771 22.7284 458.06 26.5417C455.893 31.3739 455.611 36.1837 455.611 41.5141V84.089C455.59 85.6709 454.246 86.9491 452.6 86.9491V86.9491ZM247.349 49.184C247.349 55.1854 247.501 60.1909 244.467 65.5203C242.019 69.8542 238.119 72.5187 233.807 72.5187C227.892 72.5187 224.426 68.0125 224.426 61.3606C224.426 48.2303 236.191 45.8471 247.349 45.8471V49.184V49.184ZM262.884 86.7326C261.866 87.6425 260.393 87.7077 259.244 87.1009C254.131 82.8541 253.199 80.8825 250.404 76.8307C241.954 85.4543 235.953 88.0327 225.01 88.0327C212.032 88.0327 201.957 80.0373 201.957 64.026C201.957 51.524 208.717 43.0089 218.38 38.8487C226.744 35.1653 238.422 34.5152 247.35 33.4968V31.5038C247.35 27.8418 247.631 23.5084 245.464 20.3452C243.601 17.507 240.004 16.3368 236.819 16.3368C230.947 16.3368 225.726 19.3482 224.447 25.5885C224.187 26.9753 223.169 28.3401 221.761 28.4053L206.832 26.802C205.576 26.5203 204.167 25.5019 204.535 23.5736C207.959 5.46036 224.339 0 238.986 0C246.483 0 256.276 1.9935 262.192 7.67038C269.688 14.6688 268.973 24.0067 268.973 34.1688V58.1754C268.973 65.3909 271.964 68.5536 274.78 72.454C275.755 73.8407 275.971 75.5092 274.715 76.549C271.573 79.1707 265.983 84.0457 262.906 86.7759L262.885 86.7326H262.884ZM45.3921 49.184C45.3921 55.1854 45.5439 60.1909 42.5101 65.5203C40.0622 69.8542 36.1837 72.5187 31.8502 72.5187C25.9354 72.5187 22.49 68.0125 22.49 61.3606C22.49 48.2303 34.2554 45.8471 45.3921 45.8471V49.184ZM60.927 86.7326C59.9091 87.6425 58.4358 87.7077 57.2874 87.1009C52.174 82.8541 51.2636 80.8825 48.4473 76.8307C39.997 85.4543 34.0175 88.0327 23.0535 88.0327C10.0969 88.0327 0 80.0373 0 64.026C0 51.524 6.78189 43.0089 16.4234 38.8487C24.7871 35.1653 36.4654 34.5152 45.3921 33.4968V31.5038C45.3921 27.8418 45.6739 23.5084 43.5285 20.3452C41.6435 17.507 38.0473 16.3368 34.8836 16.3368C29.0121 16.3368 23.7687 19.3482 22.49 25.5885C22.2302 26.9753 21.2118 28.3401 19.825 28.4053L4.875 26.802C3.61817 26.5203 2.23193 25.5019 2.57836 23.5736C6.02331 5.46036 22.382 0 37.0289 0C44.525 0 54.3188 1.9935 60.2341 7.67038C67.7303 14.6688 67.0155 24.0067 67.0155 34.1688V58.1754C67.0155 65.3909 70.0055 68.5536 72.8223 72.454C73.8193 73.8407 74.0358 75.5092 72.779 76.549C69.6372 79.1707 64.0474 84.0457 60.9708 86.7759L60.9275 86.7326" fill="#3B3C5F"/>
</svg>
