<svg width="444" height="150" viewBox="0 0 444 150" fill="none" xmlns="http://www.w3.org/2000/svg">
<path d="M188.723 76.9239C188.723 97.7446 172.435 113.087 152.446 113.087C132.457 113.087 116.168 97.7446 116.168 76.9239C116.168 55.9565 132.457 40.7609 152.446 40.7609C172.435 40.7609 188.723 55.9565 188.723 76.9239ZM172.842 76.9239C172.842 63.913 163.402 55.0109 152.446 55.0109C141.489 55.0109 132.049 63.913 132.049 76.9239C132.049 89.8043 141.489 98.837 152.446 98.837C163.402 98.837 172.842 89.788 172.842 76.9239Z" fill="#3B3C5F"/>
<path d="M266.984 76.9239C266.984 97.7446 250.696 113.087 230.706 113.087C210.717 113.087 194.429 97.7446 194.429 76.9239C194.429 55.9728 210.717 40.7609 230.706 40.7609C250.696 40.7609 266.984 55.9565 266.984 76.9239ZM251.103 76.9239C251.103 63.913 241.663 55.0109 230.706 55.0109C219.75 55.0109 210.31 63.913 210.31 76.9239C210.31 89.8043 219.75 98.837 230.706 98.837C241.663 98.837 251.103 89.788 251.103 76.9239Z" fill="#3B3C5F"/>
<path d="M341.984 42.9456V107.87C341.984 134.576 326.234 145.484 307.614 145.484C290.087 145.484 279.538 133.761 275.56 124.174L289.386 118.418C291.848 124.304 297.88 131.25 307.598 131.25C319.516 131.25 326.902 123.897 326.902 110.054V104.853H326.348C322.793 109.239 315.946 113.071 307.304 113.071C289.223 113.071 272.658 97.3206 272.658 77.0543C272.658 56.6413 289.223 40.7609 307.304 40.7609C315.929 40.7609 322.777 44.5924 326.348 48.8478H326.902V42.962H341.984V42.9456ZM328.027 77.0543C328.027 64.3206 319.533 55.0109 308.723 55.0109C297.766 55.0109 288.587 64.3206 288.587 77.0543C288.587 89.6576 297.766 98.837 308.723 98.837C319.533 98.837 328.027 89.6576 328.027 77.0543Z" fill="#3B3C5F"/>
<path d="M366.848 4.89131V110.87H351.359V4.89131H366.848Z" fill="#3B3C5F"/>
<path d="M427.206 88.8261L439.533 97.0435C435.554 102.929 425.967 113.071 409.402 113.071C388.859 113.071 373.516 97.1902 373.516 76.9076C373.516 55.4022 388.989 40.7446 407.625 40.7446C426.391 40.7446 435.571 55.6793 438.571 63.75L440.217 67.8587L391.875 87.8804C395.576 95.1359 401.332 98.8369 409.402 98.8369C417.489 98.8369 423.098 94.8587 427.206 88.8261ZM389.266 75.8152L421.582 62.3967C419.804 57.8804 414.457 54.7337 408.163 54.7337C400.092 54.7337 388.859 61.8587 389.266 75.8152V75.8152Z" fill="#3B3C5F"/>
<path d="M57.538 67.5163V52.1739H109.239C109.745 54.8478 110.005 58.0109 110.005 61.4348C110.005 72.9457 106.859 87.1793 96.7174 97.3207C86.8532 107.592 74.25 113.071 57.5543 113.071C26.6087 113.071 0.586914 87.8641 0.586914 56.9185C0.586914 25.9728 26.6087 0.766312 57.5543 0.766312C74.6739 0.766312 86.8695 7.4837 96.0326 16.2391L85.2065 27.0652C78.6358 20.9022 69.7337 16.1087 57.538 16.1087C34.9402 16.1087 17.2663 34.3207 17.2663 56.9185C17.2663 79.5163 34.9402 97.7283 57.538 97.7283C72.1956 97.7283 80.5434 91.8424 85.8913 86.4946C90.2282 82.1576 93.0815 75.962 94.2065 67.5L57.538 67.5163V67.5163Z" fill="#3B3C5F"/>
</svg>
