<svg width="460" height="125" viewBox="0 0 460 125" fill="none" xmlns="http://www.w3.org/2000/svg">
<g clip-path="url(#clip0_21_2)">
<path d="M63.2513 116.943C56.3316 118.165 49.2901 118.531 42.006 119.507L19.7885 54.0774V122.315C12.8688 123.047 6.5559 124.023 0 125V0H18.4539L43.7054 70.9239V0H63.2513V116.943ZM101.494 45.7764C109.021 45.7764 120.555 45.4101 127.474 45.4101V64.9409C118.854 64.9409 108.778 64.9409 101.494 65.3072V94.3605C112.906 93.6283 124.318 92.6508 135.851 92.2845V111.082L82.0687 115.356V0H135.851V19.5313H101.494V45.7764V45.7764ZM208.086 19.5317H187.933V109.375C181.377 109.375 174.822 109.375 168.51 109.619V19.5317H148.357V0H208.087L208.086 19.5317V19.5317ZM239.651 44.434H266.239V63.9648H239.651V108.277H220.589V0H274.859V19.5313H239.651V44.434V44.434ZM306.423 91.1865C317.471 91.4299 328.64 92.2859 339.445 92.8952V112.183C322.085 111.083 304.724 109.986 286.999 109.619V0H306.423V91.1865ZM355.835 113.525C362.026 113.892 368.582 114.258 374.895 114.99V0H355.835V113.525V113.525ZM460 0L435.355 59.4484L460 125C452.715 124.023 445.431 122.681 438.146 121.46L424.186 85.3277L409.983 118.531C402.94 117.309 396.141 116.943 389.101 115.966L414.11 58.7153L391.528 0H412.409L425.156 32.837L438.754 0H460V0Z" fill="#3B3C5F"/>
</g>
<defs>
<clipPath id="clip0_21_2">
<rect width="460" height="125" fill="white"/>
</clipPath>
</defs>
</svg>
