<svg width="600" height="150" viewBox="0 0 600 150" fill="none" xmlns="http://www.w3.org/2000/svg">
<path d="M188.5 118.633L195.8 101.441C203.8 107.373 214.2 110.489 224.6 110.489C232.2 110.489 237.1 107.473 237.1 102.949C236.9 90.382 191.1 100.134 190.7 68.4651C190.5 52.3793 204.8 39.9128 224.9 39.9128C236.9 39.9128 248.9 42.9289 257.4 49.6648L250.6 67.1581C242.8 62.1313 233.1 58.6126 223.9 58.6126C217.6 58.6126 213.5 61.6286 213.5 65.449C213.7 77.9155 259.9 71.079 260.4 101.34C260.4 117.828 246.5 129.289 226.7 129.289C212.1 129.491 198.7 125.972 188.5 118.633ZM479 95.3083C475.2 102.044 468.2 106.166 460.6 106.166C448.9 106.166 439.4 96.6152 439.4 84.8525C439.4 73.0897 448.9 63.5388 460.6 63.5388C468.2 63.5388 475.3 67.6608 479 74.3967L499.3 63.0361C491.7 49.3632 477.2 40.1139 460.6 40.1139C436.1 40.1139 416.2 60.1206 416.2 84.8525C416.2 109.584 436.1 129.591 460.6 129.591C477.2 129.591 491.7 120.342 499.3 106.669L479 95.3083ZM273.6 127.681H299V2.81494H273.6V127.681ZM512.1 2.81494V127.681H537.5V90.2815L567.6 127.681H600L561.8 83.2439L597.2 41.7225H566.2L537.5 76.2064V2.71442H512.1V2.81494ZM377.1 41.823V51.9772C372.9 44.9396 362.7 40.1139 351.9 40.1139C329.7 40.1139 312.1 59.9195 312.1 84.752C312.1 109.584 329.6 129.591 351.9 129.591C362.7 129.591 372.9 124.665 377.1 117.728V127.882H402.5V41.9235H377.1V41.823ZM377.1 95.4088C373.5 101.541 365.8 106.066 357.3 106.066C345.6 106.066 336.1 96.5147 336.1 84.752C336.1 72.9892 345.6 63.4383 357.3 63.4383C365.8 63.4383 373.5 68.1635 377.1 74.4973V95.4088Z" fill="#3B3C5F"/>
<path d="M54.5 0.0999756C46.3 0.0999756 39.6 6.8359 39.6 15.0799C39.6 23.3238 46.3 30.0598 54.5 30.0598H69.4V15.0799C69.4 6.8359 62.8 0.0999756 54.5 0.0999756ZM54.5 40.0129H14.9C6.7 40.0129 0 46.7488 0 54.9927C0 63.2367 6.7 69.9726 14.9 69.9726H54.6C62.8 69.9726 69.5 63.2367 69.5 54.9927C69.4 46.7488 62.8 40.0129 54.5 40.0129Z" fill="#3B3C5F"/>
<path d="M148.8 54.9933C148.8 46.7493 142.1 40.0134 133.9 40.0134C125.7 40.0134 119 46.7493 119 54.9933V69.9732H133.9C142.1 70.0737 148.8 63.3378 148.8 54.9933ZM109.1 54.9933V14.9799C109.1 6.73592 102.4 0 94.2001 0C86.0001 0 79.3 6.73592 79.3 14.9799V54.9933C79.3 63.2373 86.0001 69.9732 94.2001 69.9732C102.5 70.0737 109.1 63.3378 109.1 54.9933Z" fill="#3B3C5F"/>
<path d="M94.2001 150C102.4 150 109.1 143.264 109.1 135.02C109.1 126.776 102.4 120.04 94.2001 120.04H79.3V135.02C79.3 143.264 86.0001 150 94.2001 150ZM94.2001 109.987H133.9C142.1 109.987 148.8 103.251 148.8 95.0067C148.8 86.7627 142.1 80.0268 133.9 80.0268H94.2001C86.0001 80.0268 79.3 86.7627 79.3 95.0067C79.3 103.251 86.0001 109.987 94.2001 109.987Z" fill="#3B3C5F"/>
<path d="M0 95.0067C0 103.251 6.7 109.987 14.9 109.987C23.1 109.987 29.8 103.251 29.8 95.0067V80.0268H14.9C6.6 80.0268 0 86.7627 0 95.0067ZM39.7 95.0067V135.02C39.7 143.264 46.4 150 54.6 150C62.8 150 69.5 143.264 69.5 135.02V95.0067C69.5 86.7627 62.8 80.0268 54.6 80.0268C46.3 80.0268 39.7 86.7627 39.7 95.0067Z" fill="#3B3C5F"/>
</svg>
