<svg width="24" height="24" viewBox="0 0 24 24" fill="none" xmlns="http://www.w3.org/2000/svg">
<path d="M14.06 9.93999L13 9.44999C12.61 9.26999 12.61 8.71999 13 8.53999L14.06 8.04999L14.55 6.99999C14.73 6.60999 15.28 6.60999 15.46 6.99999L15.95 8.05999L17 8.54999C17.39 8.72999 17.39 9.27999 17 9.45999L15.94 9.94999L15.45 11C15.27 11.39 14.72 11.39 14.54 11L14.06 9.93999ZM4.45 13L4.94 11.94L6 11.45C6.39 11.27 6.39 10.72 6 10.54L4.94 10.05L4.45 8.99999C4.28 8.60999 3.72 8.60999 3.55 8.99999L3.06 10.06L2 10.55C1.61 10.73 1.61 11.28 2 11.46L3.06 11.95L3.55 13C3.72 13.39 4.28 13.39 4.45 13ZM8.96 7.98999L9.59 6.58999L10.99 5.95999C11.38 5.77999 11.38 5.22999 10.99 5.04999L9.59 4.41999L8.96 3.01999C8.78 2.62999 8.23 2.62999 8.05 3.01999L7.42 4.41999L6.02 5.04999C5.63 5.22999 5.63 5.77999 6.02 5.95999L7.42 6.58999L8.05 7.98999C8.22 8.37999 8.78 8.37999 8.96 7.98999ZM22.34 8.26999C21.94 7.86999 21.27 7.87999 20.89 8.30999L14.5 15.49L11.21 12.2C10.82 11.81 10.19 11.81 9.8 12.2L3.76 18.25C3.35 18.66 3.35 19.34 3.76 19.75C4.17 20.16 4.85 20.16 5.26 19.75L10.51 14.49L13.76 17.74C14.17 18.15 14.83 18.13 15.21 17.7L22.38 9.62999C22.73 9.23999 22.71 8.63999 22.34 8.26999Z" fill="white"/>
</svg>
